# xmcd
# Track frame offsets:
# 150
# 17800
# 36850
# 52978
# 65477
# 77933
# 89013
# 104267
# 116127
# 133914
# 150412
# 163274
# 181241
# 195776
# 212671
# 228455
#
# Disc length: 3266 seconds
# Revision: 0
# Processed by: cddbd v1.5.1PL0 Copyright (c) Steve Scherf et al.
# Submitted via: VisiTrax 2.9.10.228 - For more info visit www.synapsa.com
#
DISCID=d80cc010
DTITLE=Dann.Scott. - Sings 16 Classic Australian Songs.
DYEAR=2005
DGENRE=Australian
TTITLE0=Desert Storm.
TTITLE1=I Am Australian.
TTITLE2=This Is The Outback.
TTITLE3=Sail Down To Australia.
TTITLE4=My City Of Sydney.
TTITLE5=I Still Call Australia Home.
TTITLE6=A Land Downunder.
TTITLE7=Man From snowy River.The.
TTITLE8=Namatjira.
TTITLE9=Sing australia.
TTITLE10=Cobb and Co.
TTITLE11=Australia Trilogy.
TTITLE12=Australia Downunder.
TTITLE13=My Country.
TTITLE14=Waltzing Matilda.
TTITLE15=Raining On The Rock.
EXTD=
EXTT0=
EXTT1=
EXTT2=
EXTT3=
EXTT4=
EXTT5=
EXTT6=
EXTT7=
EXTT8=
EXTT9=
EXTT10=
EXTT11=
EXTT12=
EXTT13=
EXTT14=
EXTT15=
PLAYORDER=
